<svg xmlns="http://www.w3.org/2000/svg" width="1024" height="1024" viewBox="0 0 1024 1024">
  <defs>
    <filter id="shadow" x="-20%" y="-20%" width="140%" height="140%">
      <feDropShadow dx="0" dy="16" stdDeviation="20" flood-color="#000000" flood-opacity="0.14"/>
    </filter>
    <linearGradient id="topBlob" x1="240" y1="180" x2="760" y2="560" gradientUnits="userSpaceOnUse">
      <stop offset="0%" stop-color="#4AE3D2"/>
      <stop offset="100%" stop-color="#2CCFB3"/>
    </linearGradient>
    <linearGradient id="bottomBlob" x1="240" y1="500" x2="780" y2="900" gradientUnits="userSpaceOnUse">
      <stop offset="0%" stop-color="#435BF0"/>
      <stop offset="100%" stop-color="#2F41CC"/>
    </linearGradient>
  </defs>

  <rect x="56" y="68" width="912" height="912" rx="140" fill="#000000" opacity="0.05"/>
  <rect x="48" y="48" width="928" height="928" rx="136" fill="#FFFFFF" stroke="#E9E9E9" stroke-width="4" filter="url(#shadow)"/>

  <path
    d="M 292 470
       C 240 410, 235 310, 280 234
       C 340 140, 472 112, 603 146
       C 717 177, 782 269, 806 360
       C 823 425, 796 477, 739 499
       C 692 517, 645 512, 593 527
       C 540 541, 485 558, 418 551
       C 366 546, 322 520, 292 470 Z"
    fill="url(#topBlob)"/>

  <path
    d="M 247 612
       C 189 657, 171 736, 210 800
       C 260 883, 401 930, 536 909
       C 667 889, 772 811, 804 709
       C 835 610, 796 528, 708 496
       C 621 465, 525 482, 431 523
       C 356 556, 302 570, 247 612 Z"
    fill="url(#bottomBlob)"/>

  <path
    d="M 172 573
       C 246 525, 323 503, 396 509
       C 459 514, 515 533, 577 536
       C 647 540, 713 515, 780 460
       C 810 435, 851 444, 866 476
       C 881 508, 869 547, 838 571
       C 784 613, 723 632, 653 633
       C 583 634, 524 614, 465 605
       C 392 594, 323 606, 246 645
       C 203 666, 163 655, 145 626
       C 127 598, 137 554, 172 573 Z"
    fill="#FFFFFF"/>

  <ellipse cx="181" cy="563" rx="18" ry="11" transform="rotate(-18 181 563)" fill="#39D6C0"/>
  <ellipse cx="221" cy="609" rx="28" ry="20" transform="rotate(-42 221 609)" fill="#2E51DB"/>
  <ellipse cx="785" cy="505" rx="22" ry="14" transform="rotate(18 785 505)" fill="#35D2BA"/>
  <ellipse cx="836" cy="443" rx="20" ry="13" transform="rotate(-26 836 443)" fill="#3AD5BF"/>
  <ellipse cx="870" cy="528" rx="20" ry="13" transform="rotate(12 870 528)" fill="#3754DE"/>

  <path
    d="M 372 577
       C 430 592, 496 593, 572 587
       C 611 584, 653 573, 684 555"
    fill="none"
    stroke="#FFFFFF"
    stroke-opacity="0.45"
    stroke-width="12"
    stroke-linecap="round"/>

  <path
    d="M 520 550
       C 548 538, 572 532, 603 532"
    fill="none"
    stroke="#FFFFFF"
    stroke-opacity="0.42"
    stroke-width="10"
    stroke-linecap="round"/>

  <ellipse cx="491" cy="583" rx="10" ry="7" transform="rotate(-16 491 583)" fill="#FFFFFF" fill-opacity="0.55"/>
  <ellipse cx="550" cy="546" rx="10" ry="6" transform="rotate(-20 550 546)" fill="#FFFFFF" fill-opacity="0.48"/>
  <ellipse cx="585" cy="532" rx="8" ry="5" transform="rotate(-16 585 532)" fill="#FFFFFF" fill-opacity="0.45"/>
</svg>
